<svg xmlns="http://www.w3.org/2000/svg"
 viewBox="0 0 180 180"
 preserveAspectRatio="xMidYMid meet">
  <rect width="180" height="180" fill="#fff" />
  <g transform="translate(0,180) scale(0.1,-0.1)">
    <path d="M0 900 l0 -900 900 0 900 0 0 900 0 900 -900 0 -900 0 0 -900z m817
    611 c54 -25 73 -62 73 -143 -1 -120 -82 -288 -156 -323 -41 -19 -80 -9 -102
    26 -12 18 -8 27 30 77 59 78 118 196 118 236 0 61 -34 70 -115 32 -135 -62
    -296 -302 -371 -551 -23 -75 -27 -110 -28 -210 -1 -114 0 -123 29 -180 55
    -110 148 -131 284 -64 85 42 185 142 231 230 33 64 35 66 56 53 21 -14 21 -13
    33 73 13 96 55 233 97 315 89 178 236 338 369 404 72 36 86 39 160 39 73 0 85
    -3 117 -27 45 -34 59 -89 46 -172 -16 -108 -79 -235 -132 -270 -48 -31 -73
    -30 -106 2 l-30 31 54 75 c93 130 132 229 101 260 -60 59 -234 -72 -349 -263
    -104 -173 -161 -357 -161 -522 0 -98 2 -110 30 -164 39 -76 78 -100 160 -99
    113 1 239 88 333 229 28 40 52 79 54 86 3 10 12 8 36 -7 l32 -20 -47 -79 c-57
    -99 -176 -219 -258 -262 -106 -55 -229 -66 -321 -27 -50 21 -112 81 -139 135
    -22 42 -30 70 -50 163 -6 28 -8 26 -62 -53 -62 -91 -148 -174 -221 -214 -111
    -61 -245 -71 -339 -26 -64 31 -127 107 -155 187 -33 95 -32 270 0 392 48 178
    156 363 285 487 147 142 300 195 414 144z"/>
  </g>
</svg>
